<?xml version="1.0" encoding="utf-8"?>
<!-- Generator: Adobe Illustrator 25.3.1, SVG Export Plug-In . SVG Version: 6.00 Build 0)  -->
<svg version="1.1" id="Layer_1" xmlns="http://www.w3.org/2000/svg" xmlns:xlink="http://www.w3.org/1999/xlink" x="0px" y="0px"
	 viewBox="0 0 48 48" style="enable-background:new 0 0 48 48;" xml:space="preserve">
<g>
	<g>
		<path d="M1,24C1,11.3,11.3,1,24,1c12.6,0,23,10.3,23,23c0,12.7-10.3,23-23,23C11.3,47,1,36.7,1,24z M41.8,24
			c0-9.7-8-17.6-17.7-17.6C14.2,6.3,6.2,14.2,6.2,24c0,9.8,8,17.7,17.8,17.7C33.8,41.7,41.8,33.8,41.8,24z"/>
	</g>
	<path d="M20.4,20.9L14.6,34l12.9-6.6l4.7-13L20.4,20.9z M23.5,26.8c-1.3,0-2.4-1.1-2.4-2.4c0-1.3,1.1-2.4,2.4-2.4
		c1.3,0,2.4,1.1,2.4,2.4C25.9,25.8,24.8,26.8,23.5,26.8z"/>
</g>
</svg>
