<?xml version="1.0" encoding="utf-8"?>
<!-- Generator: Adobe Illustrator 25.3.1, SVG Export Plug-In . SVG Version: 6.00 Build 0)  -->
<svg version="1.1" id="Layer_1" xmlns="http://www.w3.org/2000/svg" xmlns:xlink="http://www.w3.org/1999/xlink" x="0px" y="0px"
	 viewBox="0 0 48 48" style="enable-background:new 0 0 48 48;" xml:space="preserve">
<path d="M9.5,39.3L14.6,25c1.6,5.2,2.9,9.1,4.5,14.3c2.1-0.4,4.7-0.5,7.5-0.3c0.7,0.1,1.4,0.2,2,0.3L15.6,13.9
	c-4.7,8.5-8.9,16.3-13.6,24.8c0.3,0,0.5-0.1,0.8-0.1C5.2,38.3,7.5,38.7,9.5,39.3z"/>
<path d="M46.1,26.6L29.8,38.8L17,13.6c4.7-1.2,5.5-1.5,9.1-2.7c2.4-0.9,4.5-1.8,6.3-2.8c1.6,3.3,3.8,7.1,6.9,11.1
	C41.6,22.2,43.9,24.6,46.1,26.6z"/>
<path d="M15.6,15.7c-0.3,0-0.5-0.2-0.5-0.5V12c0-0.3,0.2-0.5,0.5-0.5s0.5,0.2,0.5,0.5v3.2C16.1,15.5,15.9,15.7,15.6,15.7z"/>
<path d="M2.4,39.9c-0.2,0-0.4-0.1-0.5-0.4L1,36.7c-0.1-0.3,0.1-0.5,0.3-0.6C1.6,36,1.9,36.1,2,36.4l0.8,2.9c0.1,0.3-0.1,0.5-0.3,0.6
	C2.5,39.9,2.4,39.9,2.4,39.9z"/>
<path d="M28.7,40.7c0,0-0.1,0-0.1,0c-0.3-0.1-0.4-0.4-0.3-0.6l0.9-2.9c0.1-0.3,0.4-0.4,0.6-0.3c0.3,0.1,0.4,0.4,0.3,0.6l-0.9,2.9
	C29.1,40.6,28.9,40.7,28.7,40.7z"/>
<path d="M45.9,28.5C45.9,28.5,45.9,28.5,45.9,28.5c-0.3,0-0.5-0.3-0.5-0.6l0.4-3c0-0.3,0.3-0.5,0.6-0.4c0.3,0,0.5,0.3,0.4,0.6
	l-0.4,3C46.4,28.3,46.2,28.5,45.9,28.5z"/>
<path d="M32.5,9.4c-0.3,0-0.5-0.2-0.5-0.5V6.7c0-0.3,0.2-0.5,0.5-0.5S33,6.5,33,6.7v2.2C33,9.2,32.7,9.4,32.5,9.4z"/>
<polygon points="9.8,39.3 14.6,25.8 10.4,39.5 "/>
</svg>
